<svg xmlns="http://www.w3.org/2000/svg" xmlns:xlink="http://www.w3.org/1999/xlink" width="800" height="420" preserveAspectRatio="xMidYMid meet" version="1.0" viewBox="0 0 600 315" zoomAndPan="magnify"><defs><clipPath id="4d2eae4530"><path d="M 263.4375 74.398438 L 336.9375 74.398438 L 336.9375 183.898438 L 263.4375 183.898438 Z M 263.4375 74.398438" clip-rule="nonzero"/></clipPath></defs><g clip-path="url(#4d2eae4530)"><path fill="#000" fill-opacity="1" fill-rule="nonzero" d="M 336.925781 183.898438 L 263.484375 183.898438 L 263.484375 91.164062 L 272.671875 91.164062 L 272.671875 174.753906 L 336.925781 174.753906 Z M 292.011719 74.398438 L 282.824219 74.398438 L 282.824219 147.691406 L 292.011719 147.691406 Z M 336.289062 156.605469 L 300.734375 156.605469 L 300.734375 165.742188 L 336.289062 165.742188 Z M 272.710938 74.398438 L 263.445312 74.398438 L 263.445312 83.617188 L 272.710938 83.617188 Z M 292.050781 155.527344 L 282.785156 155.527344 L 282.785156 164.746094 L 292.050781 164.746094 Z M 292.050781 155.527344"/></g><g fill="#000" fill-opacity="1"><g><g><path d="M 5.496094 -3.410156 L 5.496094 -20.578125 L 1.585938 -20.578125 L 1.585938 0 L 15.199219 0 L 15.199219 -3.410156 Z M 5.496094 -3.410156" transform="translate(208.4795, 218.637187)"/></g></g></g><g fill="#000" fill-opacity="1"><g><g><path d="M 18.226562 -7.9375 L 18.226562 -20.578125 L 14.285156 -20.578125 L 14.285156 -8.082031 C 14.285156 -4.792969 12.667969 -3.144531 9.90625 -3.144531 C 7.144531 -3.144531 5.496094 -4.792969 5.496094 -8.082031 L 5.496094 -20.578125 L 1.585938 -20.578125 L 1.585938 -7.9375 C 1.585938 -2.703125 4.910156 0.265625 9.90625 0.265625 C 14.875 0.265625 18.226562 -2.703125 18.226562 -7.9375 Z M 18.226562 -7.9375" transform="translate(228.115087, 218.637187)"/></g></g></g><g fill="#000" fill-opacity="1"><g><g><path d="M 10.757812 -11.257812 L 18.8125 -20.578125 L 14.316406 -20.578125 L 5.496094 -10.496094 L 5.496094 -20.578125 L 1.585938 -20.578125 L 1.585938 0 L 5.496094 0 L 5.496094 -5.203125 L 8.40625 -8.582031 L 8.40625 -8.523438 L 15.257812 0 L 19.605469 0 Z M 10.757812 -11.257812" transform="translate(251.542413, 218.637187)"/></g></g></g><g fill="#000" fill-opacity="1"><g><g><path d="M 5.496094 -3.410156 L 5.496094 -8.878906 L 14.257812 -8.878906 L 14.257812 -12.050781 L 5.496094 -12.050781 L 5.496094 -17.167969 L 15.726562 -17.167969 L 15.726562 -20.578125 L 1.585938 -20.578125 L 1.585938 0 L 16.019531 0 L 16.019531 -3.410156 Z M 5.496094 -3.410156" transform="translate(275.351857, 218.637187)"/></g></g></g><g fill="#000" fill-opacity="1"><g><g><path d="M 14.167969 -20.578125 L 14.167969 -11.816406 L 5.496094 -11.816406 L 5.496094 -20.578125 L 1.585938 -20.578125 L 1.585938 0 L 5.496094 0 L 5.496094 -8.613281 L 14.167969 -8.613281 L 14.167969 0 L 18.109375 0 L 18.109375 -20.578125 Z M 14.167969 -20.578125" transform="translate(295.869239, 218.637187)"/></g></g></g><g fill="#000" fill-opacity="1"><g><g><path d="M 2.617188 -4.9375 L 0.558594 -2.5 C 1.734375 -1.058594 3.761719 0.207031 6.554688 0.207031 C 10.464844 0.207031 13.84375 -1.792969 13.84375 -7.054688 L 13.84375 -20.578125 L 9.90625 -20.578125 L 9.90625 -7.230469 C 9.90625 -3.96875 8.261719 -3.203125 6.527344 -3.203125 C 4.527344 -3.203125 3.320312 -4.144531 2.617188 -4.9375 Z M 2.617188 -4.9375" transform="translate(319.178997, 218.637187)"/></g></g></g><g fill="#000" fill-opacity="1"><g><g><path d="M 10.757812 -20.839844 C 4.996094 -20.839844 1.144531 -17.019531 1.144531 -10.289062 C 1.144531 -3.585938 4.996094 0.265625 10.757812 0.265625 C 16.550781 0.265625 20.402344 -3.585938 20.402344 -10.289062 C 20.402344 -17.019531 16.550781 -20.839844 10.757812 -20.839844 Z M 10.757812 -3.144531 C 7.320312 -3.144531 5.261719 -5.761719 5.261719 -10.289062 C 5.261719 -14.84375 7.320312 -17.433594 10.757812 -17.433594 C 14.226562 -17.433594 16.285156 -14.84375 16.285156 -10.289062 C 16.285156 -5.761719 14.226562 -3.144531 10.757812 -3.144531 Z M 10.757812 -3.144531" transform="translate(338.050359, 218.637187)"/></g></g></g><g fill="#000" fill-opacity="1"><g><g><path d="M 1.175781 -20.578125 L 4.761719 -20.578125 L 4.761719 -12.316406 L 1.175781 -12.316406 Z M 1.175781 -20.578125" transform="translate(363.211896, 218.637187)"/></g></g></g><g fill="#000" fill-opacity="1"><g><g><path d="M 11.230469 -11.789062 L 8.144531 -12.375 C 6.203125 -12.757812 5.613281 -13.757812 5.613281 -14.902344 C 5.613281 -16.078125 6.613281 -17.578125 9.113281 -17.578125 C 11.492188 -17.578125 12.757812 -16.550781 13.023438 -14.757812 L 17.078125 -14.757812 C 16.695312 -18.695312 13.699219 -20.839844 9.113281 -20.839844 C 4.46875 -20.839844 1.585938 -18.460938 1.585938 -15.019531 C 1.585938 -11.375 4.085938 -9.90625 7.523438 -9.257812 L 10.316406 -8.730469 C 12.40625 -8.320312 13.550781 -7.644531 13.550781 -5.878906 C 13.550781 -4.292969 12.050781 -3 9.4375 -3 C 6.613281 -3 5.527344 -4.613281 5.203125 -6.527344 L 1.144531 -6.527344 C 1.441406 -2.261719 4.4375 0.265625 9.40625 0.265625 C 14.109375 0.265625 17.636719 -1.910156 17.636719 -5.851562 C 17.636719 -9.289062 15.667969 -10.875 11.230469 -11.789062 Z M 11.230469 -11.789062" transform="translate(372.765562, 218.637187)"/></g></g></g><g fill="#000" fill-opacity="1"><g><g><path d="M 9.054688 -20.578125 L 1.585938 -20.578125 L 1.585938 0 L 9.054688 0 C 15.636719 0 18.988281 -3.703125 18.988281 -10.289062 C 18.988281 -16.875 15.636719 -20.578125 9.054688 -20.578125 Z M 8.671875 -3.410156 L 5.496094 -3.410156 L 5.496094 -17.167969 L 8.671875 -17.167969 C 13.316406 -17.167969 15.050781 -15.078125 15.050781 -10.289062 C 15.050781 -5.496094 13.316406 -3.410156 8.671875 -3.410156 Z M 8.671875 -3.410156" transform="translate(227.290905, 259.587184)"/></g></g></g><g fill="#000" fill-opacity="1"><g><g><path d="M 5.496094 -3.410156 L 5.496094 -8.878906 L 14.257812 -8.878906 L 14.257812 -12.050781 L 5.496094 -12.050781 L 5.496094 -17.167969 L 15.726562 -17.167969 L 15.726562 -20.578125 L 1.585938 -20.578125 L 1.585938 0 L 16.019531 0 L 16.019531 -3.410156 Z M 5.496094 -3.410156" transform="translate(250.865204, 259.587184)"/></g></g></g><g fill="#000" fill-opacity="1"><g><g><path d="M 15.902344 -20.578125 L 10.316406 -4.910156 L 4.761719 -20.578125 L 0.558594 -20.578125 L 8.554688 0 L 12.082031 0 L 20.105469 -20.578125 Z M 15.902344 -20.578125" transform="translate(271.382587, 259.587184)"/></g></g></g><g fill="#000" fill-opacity="1"><g><g><path d="M 5.496094 -3.410156 L 5.496094 -20.578125 L 1.585938 -20.578125 L 1.585938 0 L 15.199219 0 L 15.199219 -3.410156 Z M 5.496094 -3.410156" transform="translate(307.155954, 259.587184)"/></g></g></g><g fill="#000" fill-opacity="1"><g><g><path d="M 10.757812 -20.839844 C 4.996094 -20.839844 1.144531 -17.019531 1.144531 -10.289062 C 1.144531 -3.585938 4.996094 0.265625 10.757812 0.265625 C 16.550781 0.265625 20.402344 -3.585938 20.402344 -10.289062 C 20.402344 -17.019531 16.550781 -20.839844 10.757812 -20.839844 Z M 10.757812 -3.144531 C 7.320312 -3.144531 5.261719 -5.761719 5.261719 -10.289062 C 5.261719 -14.84375 7.320312 -17.433594 10.757812 -17.433594 C 14.226562 -17.433594 16.285156 -14.84375 16.285156 -10.289062 C 16.285156 -5.761719 14.226562 -3.144531 10.757812 -3.144531 Z M 10.757812 -3.144531" transform="translate(326.791543, 259.587184)"/></g></g></g><g fill="#000" fill-opacity="1"><g><g><path d="M 19.488281 -11.082031 L 11.347656 -11.082031 L 11.347656 -7.996094 L 15.875 -7.996094 C 15.667969 -4.527344 13.875 -3.144531 10.730469 -3.144531 C 7.203125 -3.144531 5.261719 -5.851562 5.261719 -10.289062 C 5.261719 -14.816406 7.261719 -17.433594 10.582031 -17.433594 C 12.816406 -17.433594 14.050781 -16.492188 14.816406 -14.785156 L 18.753906 -14.785156 C 17.988281 -18.753906 14.550781 -20.839844 10.496094 -20.839844 C 4.996094 -20.839844 1.144531 -17.167969 1.144531 -10.289062 C 1.144531 -3.410156 4.96875 0.265625 10.730469 0.265625 C 16.84375 0.265625 19.488281 -3.203125 19.488281 -9.757812 Z M 19.488281 -11.082031" transform="translate(351.95308, 259.587184)"/></g></g></g></svg>